<svg width="24" height="24" viewBox="0 0 31 23" fill="none" xmlns="http://www.w3.org/2000/svg">
<path d="M30.6122 0L29.6645 2.5H27.2041L22.773 17.5H5.88648L0 3.75H21.4439L20.7245 6.25H3.83673L7.58291 15H20.8839L25.2615 0H30.6122V0ZM10.8418 18.75C9.78571 18.75 8.92857 19.59 8.92857 20.625C8.92857 21.6612 9.78571 22.5 10.8418 22.5C11.898 22.5 12.7551 21.6612 12.7551 20.625C12.7551 19.59 11.898 18.75 10.8418 18.75ZM19.6429 10L17.2194 18.75C16.1633 18.75 15.3061 19.5888 15.3061 20.625C15.3061 21.6612 16.1633 22.5 17.2194 22.5C18.2755 22.5 19.1327 21.6612 19.1327 20.625C19.1327 19.59 18.2755 18.75 17.2194 18.75L19.6429 10Z" fill="#F0F0F4"/>
</svg>
